<svg width="1350" height="1194" viewBox="0 0 1350 1194" fill="none" xmlns="http://www.w3.org/2000/svg">
    <path d="M687.367 4.44941C636.332 20.6974 608.054 75.5345 624.213 126.716L688.579 330.628L615.191 472.934L423.709 459.529L126.927 361.906C76.0266 345.116 21.3561 373.008 4.79338 424.19C-11.7694 475.371 15.9699 530.343 66.7353 547.133L214.453 595.742L150.492 651.662C110.095 687.001 105.786 748.473 140.931 789.093C176.076 829.713 237.21 834.046 277.607 798.706L438.118 658.432L598.359 669.67L626.771 759.711L388.43 815.767C336.317 828.088 304 880.488 316.119 932.752C328.238 985.152 380.35 1017.65 432.597 1005.33L702.583 941.824L808.154 1142.08C833.334 1189.61 891.91 1207.75 939.174 1182.43C969.876 1166.05 988.189 1135.45 990.478 1103.09C991.69 1085.48 988.189 1067.34 979.436 1050.69L842.895 791.936L777.99 586.264L863.767 419.992L1285.24 258.866C1322.81 245.597 1347.18 211.341 1349.74 173.835C1350.68 160.972 1348.93 147.703 1344.49 134.704C1326.72 84.0647 1271.37 57.2554 1220.88 75.1283L855.957 216.215L809.231 67.952C793.072 16.6354 738.671 -11.6632 687.636 4.58481" fill="#D9D9D9"/>
</svg>

